<?xml version="1.0" encoding="utf-8"?>
<!DOCTYPE svg PUBLIC "-//W3C//DTD SVG 1.1//EN" "http://www.w3.org/Graphics/SVG/1.1/DTD/svg11.dtd">
<svg xmlns="http://www.w3.org/2000/svg" viewBox="0 0 40 40" width="50px" height="50px">
<path fill="#8bb7f0" d="M14.6,36.5c-6.559,0-12.1-7.006-12.1-15.3v-2.8C2.5,10.045,7.112,3.5,13,3.5 c6.044,0,8.631,5.125,10.527,10.662l0.6,1.752L26.41,4.5h3.98l-3.713,18.566l0.251,0.867c1.296,4.484,2.765,9.567,5.572,9.567 c2.467,0,4-2.107,4-5.5l0,0c0,6.921-1.976,7.5-4,7.5c-3.913,0-6.158-7.574-6.18-7.65l-0.441-1.518l-0.512,1.496 C24.012,31.784,21.043,36.5,14.6,36.5z M14.6,5.5c-4.114,0-7.747,5.776-8.1,12.875l0,2.825c0.358,7.221,4.067,13.3,8.1,13.3 c5.183,0,8.521-12.908,8.885-14.38L23.515,20l-0.03-0.121C22.312,15.188,18.597,5.5,14.6,5.5z">
</path>
<path fill="#4e7ab5" d="M13,4c4.631,0,7.544,2.991,10.054,10.324l1.2,3.506l0.727-3.634L26.82,5h2.96l-3.57,17.848 l-0.048,0.24l0.069,0.235l0.216,0.747C27.793,28.725,29.317,34,32.5,34c1.209,0,2.219-0.436,2.973-1.235 C34.774,35,33.51,35,32.5,35c-2.931,0-5.108-5.263-5.7-7.29l-0.884-3.029l-1.022,2.984C23.591,31.467,20.748,36,14.6,36 C8.312,36,3,29.222,3,21.2v-2.8C3,10.46,7.486,4,13,4 M14.6,35c5.564,0,8.998-13.249,9.371-14.76l0.06-0.241l-0.06-0.241 C23.013,15.929,19.237,5,14.6,5C10.224,5,6.367,10.989,6,18.4l0.001,2.85C6.371,28.703,10.309,35,14.6,35 M13,3 C6.814,3,2,9.895,2,18.4v2.8C2,29.705,7.641,37,14.6,37c5.74,0,9.384-3.594,11.24-9.011c0,0,2.327,8.011,6.66,8.011 c2.833,0,4.5-1.521,4.5-8v-1h-1v1c0,2.708-1.063,5-3.5,5c-2.583,0-4.101-5.81-5.309-9.956L31,4h-5l-2,10 C21.862,7.754,19.044,3,13,3L13,3z M14.6,34c-3.63,0-7.249-5.725-7.6-12.8v-2.8C7.351,11.325,10.97,6,14.6,6 c3.347,0,6.994,8.375,8.4,14C23,20,19.542,34,14.6,34L14.6,34z">
</path>
</svg>